<?xml version="1.0" encoding="utf-8"?>
<!-- Generator: Adobe Illustrator 16.0.0, SVG Export Plug-In . SVG Version: 6.00 Build 0)  -->
<!DOCTYPE svg PUBLIC "-//W3C//DTD SVG 1.1//EN" "http://www.w3.org/Graphics/SVG/1.1/DTD/svg11.dtd">
<svg version="1.1" id="Layer_1" xmlns="http://www.w3.org/2000/svg" xmlns:xlink="http://www.w3.org/1999/xlink" x="0px" y="0px"
	 width="1735px" height="422px" viewBox="-421.5 -79.7 1735 422" enable-background="new -421.5 -79.7 1735 422"
	 xml:space="preserve">
<polygon id="green-chart" fill="rgba(45, 191, 22)" points="-421.5,0 -421.5,342.3 -72.5,342.3 -72.5,20.7 -146.2,28 -214.2,5.3 -238.2,13.3 -290.2,0
	-351.5,12.7 "/>
<polygon id="pink-chart" fill="#F70065" points="-74.5,21.3 -74.5,342.3 273.5,342.3 273.5,-65.7 154.5,-0.7 150.5,-12.7 129.5,12.3 113.5,3.3 
	24.5,25.3 -35.5,15.3 "/>
<polygon id="darkblue-chart" fill="rgba(84, 78, 159)" points="273.5,-66.7 273.5,342.3 612.5,342.3 612.5,-14.7 578.5,-13.7 497.5,-38.7 457.5,-27.7 415.5,-60.7
	380.5,-49.7 297.5,-79.7 "/>
<polygon id="blue-chart" fill="#0075D5" points="612.5,-13.7 612.5,342.3 963.5,342.3 963.5,-32.7 917.5,-15.7 861.5,-32.7 828.5,-2.7 780.5,-13.7 
	"/>
<polygon id="orange-chart" fill="#FCAC2A" points="963.5,-32.7 963.5,342.3 1313.5,342.3 1313.5,-3.7 1248.5,-14.7 1229.5,-11.7 1202.5,-18.7 
	1177.5,-15.7 1114.5,-26.7 1092.5,-20.7 1029.5,-21.7 1029.5,-32.7 1007.5,-23.7 "/>
</svg>
