<?xml version="1.0" encoding="utf-8"?>
<!-- Generator: Adobe Illustrator 16.0.0, SVG Export Plug-In . SVG Version: 6.00 Build 0)  -->
<!DOCTYPE svg PUBLIC "-//W3C//DTD SVG 1.1//EN" "http://www.w3.org/Graphics/SVG/1.1/DTD/svg11.dtd">
<svg version="1.1" id="Layer_1" xmlns="http://www.w3.org/2000/svg" xmlns:xlink="http://www.w3.org/1999/xlink" x="0px" y="0px"
	 width="788px" height="312px" viewBox="0 0 788 312" enable-background="new 0 0 788 312" xml:space="preserve">
<polygon fill="rgb(0, 0, 0, 0.2)" points="0,40 0,312 788,312 788,40 754,6 734,102 705,62 694,56 663,77 612,65 584,74 542,54 535,60 524,37
	509,51 460,52 419,0 413,41 383,20 340,65 279,69 233,35 213,44 184,88 170,34 152,19 120,67 107,54 104,28 89,28 80,71 57,99 
	42,69 41,31 28,38 18,34 9,39 "/>
</svg>
